<svg width="604pt" height="182pt" viewBox="0 0 604 182" xmlns="http://www.w3.org/2000/svg"><path fill="#ea2126" d="M 93.44 1.69 C 107.46 -2.42 123.39 6.80 126.98 20.91 C 131.29 34.76 122.58 50.78 108.67 54.77 C 94.77 59.50 78.34 50.88 74.20 36.84 C 69.13 22.41 78.58 5.22 93.44 1.69 Z" id="#ea2126ff"/><g id="#888b8dff" fill="#888b8d"><path d="M 0.95 61.29 C 27.00 78.88 53.02 96.50 79.05 114.12 C 79.07 98.12 79.04 82.13 79.06 66.13 C 85.42 66.12 91.77 66.12 98.12 66.13 C 98.13 102.85 98.13 139.58 98.12 176.31 C 92.31 176.32 86.51 176.30 80.71 176.32 C 54.10 157.93 27.53 139.49 0.94 121.07 C 0.95 101.14 0.92 81.22 0.95 61.29 Z"/><path d="M 103.31 66.13 C 108.56 66.15 113.82 66.08 119.07 66.13 C 120.68 65.98 121.83 67.28 123.08 68.07 C 148.32 86.04 173.70 103.82 198.92 121.82 C 198.81 141.71 198.92 161.59 198.87 181.48 C 173.37 163.79 147.88 146.08 122.38 128.39 C 122.37 144.37 122.38 160.34 122.37 176.31 C 116.02 176.31 109.67 176.32 103.32 176.31 C 103.30 139.58 103.32 102.85 103.31 66.13 Z"/><path d="M 234.95 66.50 C 246.94 66.50 258.94 66.50 270.94 66.50 C 270.94 76.88 270.95 87.25 270.94 97.63 C 258.94 97.62 246.94 97.63 234.94 97.62 C 234.94 87.25 234.93 76.88 234.95 66.50 Z"/><path d="M 286.10 87.06 C 291.50 74.72 304.56 66.33 318.03 66.51 C 357.01 66.49 396.00 66.50 434.99 66.51 C 437.54 66.13 440.03 68.27 439.79 70.89 C 439.85 107.74 439.80 144.58 439.81 181.43 C 427.79 181.44 415.77 181.44 403.76 181.43 C 403.73 154.93 403.78 128.43 403.73 101.93 C 403.96 99.37 401.48 97.32 399.00 97.63 C 374.34 97.62 349.68 97.62 325.02 97.63 C 322.11 97.39 319.13 99.27 318.44 102.16 C 317.37 105.71 320.34 109.71 324.06 109.67 C 336.67 109.79 349.30 109.34 361.91 109.57 C 378.22 110.40 392.74 123.72 394.98 139.89 C 397.89 156.26 387.65 173.62 372.00 179.15 C 367.85 180.72 363.40 181.44 358.97 181.44 C 317.63 181.43 276.29 181.44 234.94 181.43 C 234.93 156.77 234.94 132.10 234.94 107.44 C 246.94 107.43 258.94 107.44 270.94 107.43 C 270.98 118.64 270.88 129.85 270.98 141.06 C 270.74 143.76 273.40 145.80 275.97 145.38 C 302.67 145.35 329.37 145.41 356.06 145.35 C 359.56 145.61 361.96 141.12 359.83 138.35 C 358.82 136.72 356.82 136.29 355.04 136.37 C 342.70 136.37 330.36 136.40 318.02 136.36 C 308.51 136.40 299.07 132.38 292.57 125.44 C 282.91 115.51 280.19 99.61 286.10 87.06 Z"/><path d="M 450.53 70.92 C 450.23 67.94 453.22 66.03 455.95 66.49 C 492.96 66.58 529.97 66.76 566.98 66.89 C 580.36 66.83 593.28 74.79 599.43 86.64 C 602.69 92.53 603.68 99.31 604.00 105.94 L 604.00 181.34 C 580.67 181.54 557.33 181.41 534.00 181.41 C 519.35 181.29 505.48 171.20 500.83 157.32 C 496.24 144.70 499.63 129.69 509.15 120.24 C 515.82 113.35 525.35 109.44 534.92 109.45 C 545.42 109.40 555.92 109.46 566.42 109.43 C 566.40 106.32 566.65 103.18 566.23 100.08 C 565.64 97.77 563.01 97.52 561.05 97.61 C 537.68 97.68 514.30 97.56 490.94 97.67 C 488.55 97.47 486.36 99.54 486.59 101.96 C 486.52 128.45 486.59 154.95 486.56 181.44 C 474.54 181.44 462.52 181.44 450.50 181.44 C 450.51 144.60 450.47 107.76 450.53 70.92 M 531.46 142.04 C 531.71 144.72 534.35 146.68 536.99 146.47 C 546.71 146.54 556.45 146.48 566.18 146.50 C 566.18 143.12 566.18 139.75 566.19 136.38 C 556.45 136.38 546.72 136.36 536.99 136.38 C 533.89 136.05 530.97 138.91 531.46 142.04 Z"/></g></svg>